<?xml version="1.0" encoding="UTF-8"?>
<svg id="Capa_2" data-name="Capa 2" xmlns="http://www.w3.org/2000/svg" viewBox="0 0 933.3 236.65">
  <defs>
    <style>
      .cls-1 {
        fill: #032b22;
      }

      .cls-1, .cls-2, .cls-3, .cls-4, .cls-5 {
        stroke-width: 0px;
      }

      .cls-2 {
        fill: none;
      }

      .cls-3 {
        fill: #fff;
      }

      .cls-4 {
        fill: #da4e01;
      }

      .cls-5 {
        fill: #f9ecde;
      }
    </style>
  </defs>
  <g id="Laag_2" data-name="Laag 2">
    <g>
      <path class="cls-2" d="m678,134.63c-.05,0-.1,0-.15,0-4.09.5-8.23,1.42-11.98,2.66-8.39,2.63-14.23,10.62-14.23,19.44,0,.3,0,.6.03.9.1,1.71.45,3.36,1.03,4.95.12.31.24.62.37.93.14.31.29.63.45.95.1.2.19.37.29.55,1.93,3.47,4.9,5.93,8.15,6.76.19.05.36.09.53.13.46.1.94.17,1.42.19.26,0,.47.02.69.02h.18c7.94-.07,14.4-6.67,14.4-14.72v-21.58c0-.65-.53-1.17-1.17-1.17Z"/>
      <path class="cls-2" d="m544.22,94.42c-13.66,0-21.49,15.64-21.49,42.91,0,.08,0,.15,0,.22.04,27.01,8.07,43.14,21.49,43.14s21.25-15.64,21.25-42.91c0-.08,0-.15,0-.22-.04-27.01-7.98-43.14-21.25-43.14Z"/>
      <path class="cls-2" d="m876.39,134.63c-.05,0-.1,0-.15,0-4.09.5-8.23,1.41-11.98,2.66-8.38,2.63-14.23,10.62-14.23,19.44,0,.28,0,.56.03.84,0,.02,0,.14,0,.17.1,1.6.44,3.26,1.03,4.85.12.31.24.62.37.93.14.32.29.63.46.95.1.2.19.37.29.54,1.93,3.47,4.9,5.93,8.15,6.77.18.05.35.09.51.12.48.11.95.17,1.43.2.27,0,.48.02.7.02h.18c1.43,0,2.88-.25,4.28-.7.43-.13.87-.29,1.32-.5,1.52-.67,2.89-1.57,4.1-2.7,2.99-2.79,4.7-6.74,4.7-10.82v-21.58c0-.65-.53-1.17-1.17-1.17Z"/>
      <path class="cls-1" d="m486.89,184.97l-4.99-2.47c-4.4-2.08-8.25-5.69-11.76-11.03l-32.4-49.82c-.6-.93-.5-2.15.25-2.96l10.36-11.24c8.41-9.01,11.34-11.01,22.4-15.26l6.04-2.24c2.2-.82,3.73-2.77,3.89-4.98.11-1.6-.43-3.12-1.52-4.29-1.08-1.15-2.61-1.81-4.19-1.81h-49.35c-2.75,0-5.17,1.84-5.75,4.38-.64,2.79.91,5.63,3.61,6.61l4.52,1.63c4.22,1.75,4.85,3.12,4.85,3.79,0,2.39-2.17,5.83-4.34,8.19l-9.67,10.95c-4.52,4.93-9.96,7.64-15.32,7.64h-8.35V47.35c0-2.16-.68-4.21-1.93-5.76-1.76-2.2-4.38-3.46-7.18-3.46-1.17,0-2.32.22-3.4.65l-37.44,14.96c-2.24.9-3.89,2.73-4.4,4.91-.77,3.27.92,6.62,4.01,7.96l3.85,1.67c5.21,2.21,7.63,9.32,7.63,22.36v77.08c0,8.45-1.8,10.77-7.95,14.35l-5.3,2.85c-2.02,1.09-3.3,3.09-3.34,5.23-.03,1.62.58,3.14,1.72,4.29,1.14,1.15,2.67,1.79,4.29,1.79h59.85c2.72,0,5.16-1.72,5.92-4.18.85-2.77-.33-5.66-2.87-7.03l-5.47-2.94c-6.18-3.6-7.98-5.92-7.98-14.37v-29.53h8.13c1.02,0,1.97.54,2.49,1.42l28.49,48.47c2.96,5.03,8.45,8.16,14.32,8.16h35.83c1.62,0,3.14-.64,4.27-1.79,1.13-1.16,1.72-2.68,1.67-4.29-.07-2.17-1.4-4.15-3.48-5.18Z"/>
      <path class="cls-1" d="m544.22,76.58c-35.05,0-63.57,27.25-63.57,60.75h0s0,0,0,0c0,.07,0,.15,0,.22.11,36.48,25.62,60.98,63.57,60.98,34.93,0,63.34-27.25,63.34-60.75h0c0-.08,0-.15,0-.23-.11-36.48-25.53-60.97-63.34-60.97Zm0,104.11c-13.42,0-21.44-16.12-21.49-43.14,0-.08,0-.15,0-.22,0-27.27,7.83-42.91,21.49-42.91s21.2,16.12,21.25,43.14c0,.08,0,.15,0,.22,0,27.27-7.75,42.91-21.25,42.91Z"/>
      <path class="cls-1" d="m807.18,185.03l-5.47-2.94c-6.19-3.6-7.98-5.92-7.98-14.37V47.15c0-3.08-1.56-5.91-4.17-7.58-1.47-.94-3.18-1.44-4.94-1.44-1.17,0-2.32.22-3.4.65l-37.64,15.04c-2.66,1.06-4.38,3.59-4.38,6.44s1.65,5.25,4.19,6.36l3.85,1.67c5.21,2.21,7.63,9.32,7.63,22.36v77.08c0,8.45-1.8,10.77-7.95,14.35l-5.5,2.96c-1.94,1.04-3.15,3.05-3.15,5.24,0,3.29,2.7,5.97,6.02,5.97h60.02c3.32,0,6.02-2.68,6.02-5.97,0-2.19-1.21-4.2-3.15-5.24Z"/>
      <path class="cls-1" d="m731.56,184.93l-5.27-2.83c-6.19-3.6-7.99-5.92-7.99-14.38v-1.88s-.02-.14-.02-.14c-.04-.36-.07-.71-.1-1.01l-.17-4.11v-38.1c0-28.34-12.54-42.78-39.48-45.43-3.16-.31-6.54-.46-10.03-.46-18,0-31.66,3.89-47.16,13.43-3.14,1.93-4.45,5.8-3.11,9.21.02.06.06.13.09.18l8.79,13.94c1.36,2.17,3.5,3.61,5.87,3.95.4.06.82.09,1.22.09,3.39,0,6.48-2.12,7.69-5.28,3.23-8.55,5.75-11.76,7.8-13.78,3.01-2.98,6.73-4.25,12.47-4.25,10.81,0,17,8.04,17,22.05v2.36c0,.66-.53,1.22-1.2,1.27-16.32,1.22-28.87,3.89-38.38,8.17-22.73,10.25-27.51,26.29-27.51,37.95,0,19.82,14.73,32.64,37.52,32.64.01,0,.56,0,1.47-.04,1.11-.06,2.15-.15,3.17-.3,6.78-.89,19.41-4,27.82-14.86l1.66,5.31c1.17,3.74,4.13,6.57,7.91,7.56.09.02.19.04.28.04h36.97c1.63,0,3.15-.63,4.29-1.78,1.14-1.15,1.75-2.67,1.73-4.29-.04-2.15-1.32-4.16-3.35-5.24Zm-52.39-27.54c0,8.05-6.46,14.66-14.4,14.72h-.18c-.21,0-.43,0-.69-.02-.48-.03-.96-.09-1.42-.19-.17-.04-.34-.08-.53-.13-3.25-.84-6.21-3.3-8.15-6.76-.1-.17-.19-.35-.29-.55-.17-.32-.32-.64-.45-.95-.13-.31-.25-.62-.37-.93-.59-1.59-.93-3.24-1.03-4.95-.02-.3-.03-.6-.03-.9,0-8.81,5.84-16.8,14.23-19.44,3.75-1.24,7.89-2.16,11.98-2.66.05,0,.1,0,.15,0,.65,0,1.17.53,1.17,1.17v21.58Z"/>
      <path class="cls-1" d="m929.96,184.93l-5.28-2.83c-6.19-3.6-7.99-5.92-7.99-14.38v-1.77s0-.09,0-.13c-.04-.4-.08-.79-.11-1.13l-.17-4.11v-38.1c0-28.34-12.54-42.78-39.48-45.43-3.16-.31-6.54-.46-10.03-.46-17.99,0-31.66,3.89-47.16,13.43-3.15,1.93-4.46,5.8-3.11,9.21.02.06.06.13.09.18l8.79,13.94c1.36,2.17,3.5,3.61,5.86,3.95.41.06.82.09,1.22.09,3.39,0,6.48-2.12,7.69-5.28,3.23-8.55,5.75-11.76,7.8-13.78,3.01-2.98,6.73-4.25,12.47-4.25,10.81,0,17.01,8.04,17.01,22.05v2.36c0,.67-.51,1.22-1.2,1.27-16.32,1.22-28.87,3.89-38.38,8.17-22.73,10.25-27.5,26.29-27.5,37.95,0,19.82,14.73,32.64,37.52,32.64.02,0,.55,0,1.48-.04,1.1-.06,2.16-.16,3.16-.3,6.78-.89,19.42-4,27.82-14.87l1.65,5.32c1.17,3.74,4.13,6.57,7.91,7.56.09.02.19.04.28.04h36.97c1.63,0,3.16-.64,4.3-1.79,1.14-1.15,1.75-2.67,1.71-4.28-.04-2.16-1.32-4.17-3.34-5.25Zm-52.4-27.54c0,4.08-1.71,8.03-4.7,10.82-1.21,1.13-2.58,2.04-4.1,2.7-.45.2-.89.37-1.32.5-1.4.46-2.84.69-4.28.7h-.18c-.22,0-.43,0-.7-.02-.48-.03-.94-.09-1.43-.2-.17-.04-.33-.07-.51-.12-3.25-.84-6.21-3.3-8.15-6.77-.1-.17-.19-.34-.29-.54-.17-.32-.32-.63-.46-.95-.13-.31-.25-.62-.37-.93-.59-1.59-.93-3.24-1.03-4.85,0-.02,0-.14,0-.17-.02-.28-.03-.56-.03-.84,0-8.81,5.84-16.8,14.23-19.44,3.75-1.24,7.89-2.16,11.98-2.66.05,0,.1,0,.15,0,.65,0,1.17.53,1.17,1.17v21.58Z"/>
      <path class="cls-1" d="m252.88,65.86c.2.75.65,1.38,1.24,1.81.61.83,1.59,1.36,2.67,1.36h0c.11,0,.23,0,.34-.02,3.88-.4,13.75-1.33,21.6-1.33,1.91,0,3.6.05,5.01.16.08,0,.16,0,.24,0,.95,0,1.82-.42,2.41-1.16.58-.74.78-1.69.55-2.59-1.54-5.96-6.22-20.57-16.49-28.33-.1-.08-.21-.16-.31-.24,1.47-.57,3.8-1.3,6.55-1.48.84-.06,1.55-.57,1.86-1.35.3-.77.13-1.63-.45-2.22-1.03-1.07-2.65-2.56-4.87-4.12-5.02-3.74-13.6-8.15-26.09-8.15-4.57,0-9.39.59-14.34,1.77-.94.22-1.69.93-1.95,1.86-.27.93-.01,1.89.67,2.57,4.24,4.19,14.8,16.63,21.35,41.46Z"/>
      <path class="cls-1" d="m216.8,187.64c-21.46,7.78-34.59-4.7-35.1-25.76-.45-18.94-2.13-29.34,6.67-36.34,5.11-4.07,12.08-5.5,18.54-3.95,5.29,1.28,10.03,4.58,13.93,12.98.04.08.08.16.11.23.54,1.16,1.08,2.39,1.65,3.65,7.34,16.66,14.97,41.66-5.8,49.19Z"/>
      <path class="cls-1" d="m328.85,92.18c-5.56-9.53-23.95-20.38-75.79-12.59-1.06.16-2.14.31-3.25.49-1.68.27-3.29-.75-3.73-2.4-.46-1.66-1.16-3.87-2-6.34-2.89-8.64-7.34-20.31-7.86-21.35-9.09-18.52-23.8-34.7-44.17-40.47-6.73-1.9-13.83-2.74-20.94-2.65-1.32-3.99-5.07-6.87-9.5-6.87-5.31,0-9.64,4.15-9.99,9.37-2.5.61-4.95,1.32-7.35,2.15-24.3,8.3-37.65,22.12-44.69,36.61-9.84-7.5-27.66-16.57-52.07-10.7C12.46,45.86-.17,83.14,0,101.92c.03,2.26,2.31,3.78,4.38,2.87,2.71-1.18,6.52-2.62,10.54-3.48.92-.2,1.74.64,1.53,1.56-1.32,5.87-4.38,24.13,3.96,40.88.81,1.63,2.93,2.09,4.28.88,1.47-1.31,3.53-2.97,5.97-4.46,1.1-.65,2.52-.06,2.79,1.19,1.9,9.02,11.5,39.7,54.4,41.69,15.77,32.86,49.61,53.6,90.1,53.6,62.02,0,112.81-46.59,99.46-110.83-.31-1.48.89-2.86,2.4-2.76,13.74.86,33.78-.16,45.7-11.17,5.51-5.09,7.12-13.24,3.34-19.71Zm-189.66-35.87c.86-18.86,10.56-36.91,38.24-38.12,30.42-1.34,45.66,24.26,52.81,43.69.33.88.64,1.76.93,2.62.15.42.3.86.43,1.28.05.11.09.24.12.36.19.56.37,1.12.54,1.67.17.56.34,1.1.49,1.63.47,1.57.87,3.05,1.22,4.4.09.34.18.68.25.99.17.66.31,1.28.45,1.87.01.04.02.09.04.12.1.48.21.94.3,1.36.01.07.02.12.03.18.05.26.1.5.16.74.46,2.23-.71,4.5-2.81,5.38-.03,0-.06.02-.08.03-.01,0-.02.01-.03.01-.93.37-1.86.73-2.8,1.08h-.01c-.82.31-1.65.61-2.49.9-1.13.41-2.27.79-3.41,1.16-1.31.43-2.64.84-3.95,1.24-1.43.43-2.85.83-4.28,1.22-.92.25-1.85.49-2.77.72-.01.02-.04.02-.06.02-.91.24-1.83.46-2.74.68-.03,0-.05,0-.06,0-.91.22-1.83.43-2.74.63-.02,0-.04,0-.06,0-.68.15-1.35.3-2.02.44-.61.13-1.21.26-1.81.38-1.01.2-2,.4-2.99.58-.83.16-1.64.3-2.44.44-.2.04-.4.07-.6.1-.69.13-1.38.24-2.05.35-4.13.66-8.1,1.2-11.86,1.61-.78.09-1.54.18-2.3.25-.46.05-.93.09-1.38.14-.69.06-1.35.12-2.01.17-.51.05-1.01.1-1.49.13-2.55.21-4.96.37-7.2.48-4.89.27-8.97.33-11.92.33h-.03c-3.69,0-7.12-1.93-9.03-5.07-.48-.78-.94-1.6-1.4-2.46l-.7-1.4c-.7-1.44-1.37-3-1.98-4.63-.2-.55-.41-1.1-.6-1.67-.02-.05-.04-.12-.06-.17-.19-.54-.38-1.1-.56-1.68-.22-.69-.43-1.41-.63-2.12-1.92-6.81-3-14.51-2.66-22.08Zm-52.74,50.93c-.64,1.46-1.24,2.94-1.8,4.44-.37,1-.73,2.01-1.07,3.02-1.67,4.98-2.93,10.15-3.71,15.46-.03.15-.05.3-.07.45-.62,4.25-.93,8.6-.93,13.01,0,4.68.36,9.28,1.04,13.78h0s-.03.01-.09,0c-.14,0-.44-.03-.89-.08-.35-.05-.79-.11-1.3-.2-.13-.01-.26-.04-.39-.07-.55-.09-1.18-.23-1.84-.4-.51-.13-1.04-.26-1.6-.44-.38-.11-.76-.23-1.15-.37-.4-.14-.8-.29-1.21-.44-.21-.09-.41-.17-.62-.26-.43-.16-.84-.35-1.27-.56h-.01c-1.29-.6-2.63-1.32-3.97-2.21-.22-.14-.45-.29-.67-.46-.22-.14-.44-.3-.66-.47-1.45-1.07-2.88-2.33-4.22-3.83-.11-.11-.22-.22-.32-.34-.1-.12-.2-.24-.3-.36-.11-.12-.21-.24-.3-.36-.2-.25-.4-.49-.6-.76-.1-.12-.2-.26-.29-.38-.3-.39-.58-.8-.85-1.22-.38-.55-.74-1.14-1.09-1.75-.17-.3-.35-.61-.51-.93-.09-.15-.17-.32-.25-.48-.24-.48-.48-.98-.71-1.49-.07-.17-.15-.34-.22-.51-.15-.35-.3-.7-.44-1.06-.07-.19-.14-.37-.2-.55-.14-.38-.27-.75-.4-1.13h0c-.26-.77-.48-1.55-.71-2.37-.16-.62-.31-1.25-.44-1.9-.05-.21-.09-.43-.13-.65-.04-.2-.08-.38-.11-.58-.4-2.17-.68-4.51-.78-7.05-.02-.28-.03-.57-.03-.87-.08-2.51,0-5.21.25-8.11.02-.25-.05-.49-.17-.68-.04-.05-.08-.1-.13-.15-.02-.02-.05-.04-.07-.06-.05-.04-.11-.08-.16-.11-.03-.02-.06-.03-.08-.04-.2-.08-.43-.11-.68-.04-.73.21-1.73.53-2.91.99-.2.08-.4.16-.61.25-.26.11-.53.22-.8.34-.16.07-.31.14-.48.21-.43.2-.89.42-1.35.66-.24.12-.47.25-.71.38-.48.25-.96.53-1.45.82h-.01c-.49.31-.99.62-1.49.96-.17.11-.34.19-.52.25-.18.05-.36.07-.53.07-.08,0-.17,0-.24,0h-.01c-.07-.01-.13-.02-.19-.04-.18-.04-.34-.1-.49-.18-.1-.06-.18-.11-.27-.18-.04-.03-.09-.06-.13-.11-.16-.14-.29-.31-.39-.52-.03-.04-.05-.09-.07-.14,0-.01-.01-.02-.01-.03-.02-.05-.04-.1-.05-.15-.02-.06-.03-.11-.04-.17-.03-.11-.05-.24-.07-.36-.08-.38-.15-.78-.22-1.2h0c-.05-.29-.09-.58-.13-.9h0c-.09-.62-.17-1.29-.22-1.99t0-.02c-.12-1.25-.18-2.62-.14-4.11,0-.43,0-.87.04-1.31.01-.44.04-.9.08-1.37.01-.17.03-.35.04-.53.01-.11.02-.22.04-.33.01-.18.03-.37.05-.55.06-.48.12-.97.19-1.45.11-.74.24-1.5.4-2.27.1-.51.22-1.02.35-1.55.06-.26.13-.52.2-.79.14-.53.29-1.06.45-1.61.25-.81.52-1.63.84-2.46h0c.3-.84.64-1.68,1.02-2.53.12-.28.26-.56.39-.85.11-.26.23-.51.37-.77.01-.02.02-.06.04-.08.05-.1.1-.2.15-.3.09-.19.18-.38.29-.57.29-.58.6-1.15.95-1.74.32-.57.68-1.16,1.05-1.74.18-.29.37-.59.57-.88.19-.29.38-.58.59-.88.1-.15.18-.31.23-.47.18-.59.01-1.21-.38-1.64-.3-.31-.73-.51-1.23-.5-.6.02-1.28.05-2.01.11h-.05c-.46.04-.95.1-1.46.17-.03,0-.06,0-.09.01h-.03s-.07,0-.1.03c-.47.06-.96.13-1.46.22-.18.03-.36.06-.54.1-.18.03-.36.07-.54.1h-.01c-.37.09-.76.17-1.15.27-.25.05-.52.12-.78.19-.22.06-.43.11-.65.18-.05.01-.11.02-.16.04-.07.02-.15.04-.22.07-.1.02-.21.06-.32.09-.24.07-.48.14-.73.23-.02,0-.05,0-.08.03-.32.1-.65.22-.98.33-.36.13-.72.26-1.09.4h-.01c-.36.15-.73.3-1.1.45-.37.16-.75.32-1.13.5h-.01s-.1.05-.15.06c-.57.2-1.16-.01-1.5-.43-.06-.07-.12-.15-.16-.23-.04-.07-.07-.16-.1-.24-.08-.25-.09-.53-.01-.82.11-.37.23-.76.37-1.19.03-.09.06-.19.09-.29.05-.14.1-.27.15-.41.05-.14.09-.27.15-.41.05-.15.1-.29.16-.44.05-.14.1-.29.17-.44.11-.28.23-.57.36-.87.07-.16.14-.34.22-.51.13-.32.28-.64.44-.96h0c.07-.17.15-.34.24-.5.16-.33.33-.66.51-.99.09-.18.18-.35.28-.53.1-.17.19-.35.3-.52.78-1.38,1.72-2.81,2.83-4.21.28-.35.56-.7.87-1.05h0c.59-.71,1.23-1.4,1.92-2.08h.01c.18-.17.34-.35.52-.5h.01c.36-.36.71-.68,1.09-1,.17-.13.32-.27.48-.4.04-.02.07-.05.11-.08.2-.16.39-.33.6-.48.24-.19.49-.38.75-.57.16-.12.32-.24.5-.36.43-.31.87-.6,1.32-.89.47-.29.94-.57,1.42-.84.24-.14.49-.28.75-.41.25-.13.49-.26.75-.39l.75-.36s.02,0,.02,0c.3-.14.6-.27.91-.41.3-.13.61-.26.92-.38,0,0,.02-.01.03-.01.29-.12.58-.23.88-.34.04,0,.07-.03.11-.04.31-.11.62-.22.93-.32.32-.11.63-.21.95-.31.05,0,.09-.03.13-.04.33-.09.66-.19.99-.28.35-.09.71-.19,1.07-.27,1.06-.26,2.17-.49,3.32-.66.11-.02.21-.04.32-.05.32-.05.64-.1.96-.14.39-.05.78-.09,1.17-.13.05,0,.11-.01.16-.02.35-.03.7-.06,1.05-.09.06,0,.12,0,.18-.02,1.59-.11,3.27-.16,5.02-.12,5.78.11,10.8,1.31,15.14,3.23,2.19.97,4.19,2.1,6.05,3.37.52.36,1.04.74,1.54,1.12.25.2.5.39.75.59.49.39.97.79,1.44,1.2,1.4,1.23,2.7,2.54,3.89,3.88-1.1,9.08-.57,17.31.24,23.36-2.55,4.02-4.79,8.24-6.71,12.62Zm178.47,37.17c0,41.63-37.17,75.37-83.02,75.37s-83-33.74-83-75.37c0-13.27,3.78-25.74,10.42-36.57,12.24,2.15,31.36,4.61,53.02,4.17.55,0,1.11-.03,1.66-.04,4.04-.12,8.18-.33,12.36-.66.62-.06,1.24-.11,1.86-.18.81-.06,1.62-.14,2.42-.22.64-.07,1.27-.13,1.93-.21.57-.06,1.14-.12,1.72-.2.45-.05.91-.1,1.39-.16.71-.09,1.41-.18,2.12-.28.99-.14,1.98-.27,2.97-.43.66-.09,1.33-.2,1.99-.32.47-.07.94-.15,1.42-.23.78-.13,1.59-.28,2.39-.42.78-.14,1.59-.29,2.39-.46.73-.13,1.45-.28,2.18-.44.19-.04.38-.07.57-.12.69-.14,1.36-.29,2.04-.44.53-.12,1.07-.25,1.61-.38.77-.17,1.53-.36,2.3-.55.86-.21,1.72-.43,2.59-.67.64-.17,1.3-.35,1.95-.54.94-.26,1.89-.53,2.84-.82.68-.2,1.37-.42,2.07-.63.93-.29,1.87-.6,2.8-.91,1.63-.54,3.25-1.13,4.86-1.74,2.43-.89,4.82-1.86,7.21-2.91.05-.03.1-.05.15-.07,1.44-.64,3.11-.59,4.49.2.42.23.89.51,1.4.83.18.1.36.21.54.32,1.49.93,3.29,2.14,5.25,3.65.28.22.57.45.87.68.28.23.57.47.87.71,1.18.98,2.39,2.05,3.61,3.24.39.36.78.75,1.15,1.13.49.5.97,1.01,1.45,1.53.25.27.48.53.73.8.04.05.07.09.11.13.51.57.99,1.15,1.47,1.74,6.82,8.55,10.55,19.18,10.83,30.15,0,.42.02.84.02,1.26v.06Z"/>
      <path class="cls-3" d="m235.2,79.1c-.06-.24-.11-.48-.16-.74-.01-.06-.02-.11-.03-.18-.09-.42-.2-.88-.3-1.36-.02-.03-.03-.08-.04-.12-.14-.59-.28-1.21-.45-1.87-.07-.31-.16-.65-.25-.99-.35-1.35-.75-2.83-1.22-4.4-.15-.53-.32-1.07-.49-1.63-.17-.55-.35-1.11-.54-1.67-.03-.12-.07-.25-.12-.36-.13-.42-.28-.86-.43-1.28-.29-.86-.6-1.74-.93-2.62-7.15-19.43-22.39-45.03-52.81-43.69-27.68,1.21-37.38,19.26-38.24,38.12-.34,7.57.74,15.27,2.66,22.08.2.71.41,1.43.63,2.12.18.58.37,1.14.56,1.68.02.05.04.12.06.17.19.57.4,1.12.6,1.67.61,1.63,1.28,3.19,1.98,4.63l.7,1.4c.46.86.92,1.68,1.4,2.46,1.91,3.14,5.34,5.06,9.03,5.07h.03c2.95,0,7.03-.06,11.92-.33,2.24-.11,4.65-.27,7.2-.48.48-.03.98-.08,1.49-.13.66-.05,1.32-.11,2.01-.17.45-.05.92-.09,1.38-.14.76-.07,1.52-.16,2.3-.25,3.76-.41,7.73-.95,11.86-1.61.67-.11,1.36-.22,2.05-.35.2-.03.4-.06.6-.1.8-.14,1.61-.28,2.44-.44.99-.18,1.98-.38,2.99-.58.6-.12,1.2-.25,1.81-.38.67-.14,1.34-.29,2.02-.44.02,0,.04,0,.06,0,.91-.2,1.83-.41,2.74-.63.01,0,.03,0,.06,0,.91-.22,1.83-.44,2.74-.68.02,0,.05,0,.06-.02.92-.23,1.85-.47,2.77-.72,1.43-.39,2.85-.79,4.28-1.22,1.31-.4,2.64-.81,3.95-1.24,1.14-.37,2.28-.75,3.41-1.16.84-.29,1.67-.59,2.49-.9h.01c.94-.35,1.87-.71,2.8-1.08.01,0,.02-.01.03-.01.02,0,.05-.02.08-.03,2.1-.88,3.27-3.15,2.81-5.38Zm-19.59,1.58c-4.42,1.05-8.53,1.97-12.55,2.8-.42.08-.85.13-1.27.13-1.87,0-3.61-.85-4.76-2.32-3.59-4.57-7.49-9.74-12.26-16.25-.08-.11-.19-.17-.31-.17-.79.1-1.55.21-2.31.32.42,3.46.84,6.93,1.27,10.4.36,2.91.95,3.53,3.11,4.47.65.25,1.34.52,2.03.78.93.36,1.59,1.21,1.72,2.22.2,1.52-.84,2.94-2.31,3.17-7.49,1.17-14.43,1.94-21.23,2.37-.06,0-.11,0-.17,0-1.4,0-2.63-1.12-2.79-2.55-.12-1.02.32-1.99,1.15-2.55.6-.4,1.2-.8,1.8-1.21,1.83-1.35,2.26-2.08,1.93-4.96-1.09-9.45-2.15-18.83-3.19-28.12-.48-4.31-1.5-6.68-3.03-7.04l-1.37-.34c-1.18-.29-2.02-1.26-2.15-2.49-.13-1.2.45-2.42,1.48-3.1l4.32-2.85c2.62-1.73,5.24-3.46,7.85-5.16.6-.39,1.29-.6,1.98-.6.52,0,1.02.11,1.48.33,1.15.55,1.92,1.67,2.08,3.01,1.04,9,2.1,18.04,3.19,27.1l2.28-.32c1.65-.24,3.3-1.44,4.52-3.31l2.81-4.5c.68-1.03,1.1-2.23,1.02-2.85,0,0-.17-.34-1.43-.72l-1.59-.39c-1.04-.26-1.84-1.18-1.97-2.29-.19-1.46.81-2.8,2.21-2.98,6.02-.77,11.56-1.34,16.94-1.75h.18c1.32,0,2.47,1.02,2.66,2.37.16,1.09-.38,2.15-1.33,2.62-.67.34-1.33.67-2,1.01-3.45,1.84-4.27,2.59-6.67,6.17-1.05,1.59-2.11,3.19-3.17,4.8,5.27,6.52,9.68,11.71,13.84,16.31,1.4,1.53,2.82,2.44,4.34,2.8.66.16,1.3.32,1.94.47.99.24,1.73,1.04,1.89,2.03.23,1.41-.72,2.78-2.16,3.13Z"/>
      <path class="cls-5" d="m93.16,94.62c-2.55,4.02-4.79,8.24-6.71,12.62-.64,1.46-1.24,2.94-1.8,4.44-.37,1-.73,2.01-1.07,3.02-1.67,4.98-2.93,10.15-3.71,15.46-.03.15-.05.3-.07.45-.62,4.25-.93,8.6-.93,13.01,0,4.68.36,9.28,1.04,13.78h0s-.03.01-.09,0c-.14,0-.44-.03-.89-.08-.35-.05-.79-.11-1.3-.2-.13-.01-.26-.04-.39-.07-.55-.09-1.18-.23-1.84-.4-.51-.13-1.04-.26-1.6-.44-.38-.11-.76-.23-1.15-.37-.4-.14-.8-.29-1.21-.44-.21-.09-.41-.17-.62-.26-.43-.16-.84-.35-1.27-.56h-.01c-1.29-.6-2.63-1.32-3.97-2.21-.22-.14-.45-.29-.67-.46-.22-.14-.44-.3-.66-.47-1.45-1.07-2.88-2.33-4.22-3.83-.11-.11-.22-.22-.32-.34-.1-.12-.2-.24-.3-.36-.11-.12-.21-.24-.3-.36-.2-.25-.4-.49-.6-.76-.1-.12-.2-.26-.29-.38-.3-.39-.58-.8-.85-1.22-.38-.55-.74-1.14-1.09-1.75-.17-.3-.35-.61-.51-.93-.09-.15-.17-.32-.25-.48-.24-.48-.48-.98-.71-1.49-.07-.17-.15-.34-.22-.51-.15-.35-.3-.7-.44-1.06-.07-.19-.14-.37-.2-.55-.14-.38-.27-.75-.4-1.13h0c-.26-.77-.48-1.55-.71-2.37-.16-.62-.31-1.25-.44-1.9-.05-.21-.09-.43-.13-.65-.04-.2-.08-.38-.11-.58-.4-2.17-.68-4.51-.78-7.05-.02-.28-.03-.57-.03-.87-.08-2.51,0-5.21.25-8.11.02-.25-.05-.49-.17-.68-.04-.05-.08-.1-.13-.15-.02-.02-.05-.04-.07-.06-.05-.04-.11-.08-.16-.11-.03-.02-.06-.03-.08-.04-.2-.08-.43-.11-.68-.04-.73.21-1.73.53-2.91.99-.2.08-.4.16-.61.25-.26.11-.53.22-.8.34-.16.07-.31.14-.48.21-.43.2-.89.42-1.35.66-.24.12-.47.25-.71.38-.48.25-.96.53-1.45.82h-.01c-.49.31-.99.62-1.49.96-.17.11-.34.19-.52.25-.18.05-.36.07-.53.07-.08,0-.17,0-.24,0h-.01c-.07-.01-.13-.02-.19-.04-.18-.04-.34-.1-.49-.18-.1-.06-.18-.11-.27-.18-.04-.03-.09-.06-.13-.11-.16-.14-.29-.31-.39-.52-.03-.04-.05-.09-.07-.14,0-.01-.01-.02-.01-.03-.02-.05-.04-.1-.05-.15-.02-.06-.03-.11-.04-.17-.03-.11-.05-.24-.07-.36-.08-.38-.15-.78-.22-1.2h0c-.05-.29-.09-.58-.13-.9h0c-.09-.62-.17-1.29-.22-1.99t0-.02c-.12-1.25-.18-2.62-.14-4.11,0-.43,0-.87.04-1.31.01-.44.04-.9.08-1.37.01-.17.03-.35.04-.53.01-.11.02-.22.04-.33.01-.18.03-.37.05-.55.06-.48.12-.97.19-1.45.11-.74.24-1.5.4-2.27.1-.51.22-1.02.35-1.55.06-.26.13-.52.2-.79.14-.53.29-1.06.45-1.61.25-.81.52-1.63.84-2.46h0c.3-.84.64-1.68,1.02-2.53.12-.28.26-.56.39-.85.11-.26.23-.51.37-.77.01-.02.02-.06.04-.08.05-.1.1-.2.15-.3.09-.19.18-.38.29-.57.29-.58.6-1.15.95-1.74.32-.57.68-1.16,1.05-1.74.18-.29.37-.59.57-.88.19-.29.38-.58.59-.88.1-.15.18-.31.23-.47.18-.59.01-1.21-.38-1.64-.3-.31-.73-.51-1.23-.5-.6.02-1.28.05-2.01.11h-.05c-.46.04-.95.1-1.46.17-.03,0-.06,0-.09.01h-.03s-.07,0-.1.03c-.47.06-.96.13-1.46.22-.18.03-.36.06-.54.1-.18.03-.36.07-.54.1h-.01c-.37.09-.76.17-1.15.27-.25.05-.52.12-.78.19-.22.06-.43.11-.65.18-.05.01-.11.02-.16.04-.07.02-.15.04-.22.07-.1.02-.21.06-.32.09-.24.07-.48.14-.73.23-.02,0-.05,0-.08.03-.32.1-.65.22-.98.33-.36.13-.72.26-1.09.4h-.01c-.36.15-.73.3-1.1.45-.37.16-.75.32-1.13.5h-.01s-.1.05-.15.06c-.57.2-1.16-.01-1.5-.43-.06-.07-.12-.15-.16-.23-.04-.07-.07-.16-.1-.24-.08-.25-.09-.53-.01-.82.11-.37.23-.76.37-1.19.03-.09.06-.19.09-.29.05-.14.1-.27.15-.41.05-.14.09-.27.15-.41.05-.15.1-.29.16-.44.05-.14.1-.29.17-.44.11-.28.23-.57.36-.87.07-.16.14-.34.22-.51.13-.32.28-.64.44-.96h0c.07-.17.15-.34.24-.5.16-.33.33-.66.51-.99.09-.18.18-.35.28-.53.1-.17.19-.35.3-.52.78-1.38,1.72-2.81,2.83-4.21.28-.35.56-.7.87-1.05h0c.59-.71,1.23-1.4,1.92-2.08h.01c.18-.17.34-.35.52-.5h.01c.36-.36.71-.68,1.09-1,.17-.13.32-.27.48-.4.04-.02.07-.05.11-.08.2-.16.39-.33.6-.48.24-.19.49-.38.75-.57.16-.12.32-.24.5-.36.43-.31.87-.6,1.32-.89.47-.29.94-.57,1.42-.84.24-.14.49-.28.75-.41.25-.13.49-.26.75-.39l.75-.36s.02,0,.02,0c.3-.14.6-.27.91-.41.3-.13.61-.26.92-.38,0,0,.02-.01.03-.01.29-.12.58-.23.88-.34.04,0,.07-.03.11-.04.31-.11.62-.22.93-.32.32-.11.63-.21.95-.31.05,0,.09-.03.13-.04.33-.09.66-.19.99-.28.35-.09.71-.19,1.07-.27,1.06-.26,2.17-.49,3.32-.66.11-.02.21-.04.32-.05.32-.05.64-.1.96-.14.39-.05.78-.09,1.17-.13.05,0,.11-.01.16-.02.35-.03.7-.06,1.05-.09.06,0,.12,0,.18-.02,1.59-.11,3.27-.16,5.02-.12,5.78.11,10.8,1.31,15.14,3.23,2.19.97,4.19,2.1,6.05,3.37.52.36,1.04.74,1.54,1.12.25.2.5.39.75.59.49.39.97.79,1.44,1.2,1.4,1.23,2.7,2.54,3.89,3.88-1.1,9.08-.57,17.31.24,23.36Z"/>
      <path class="cls-5" d="m264.9,143.09c-.28-10.97-4.01-21.6-10.83-30.15-.48-.59-.96-1.17-1.47-1.74-.04-.04-.07-.08-.11-.13-.25-.27-.48-.53-.73-.8-.48-.52-.96-1.03-1.45-1.53-.37-.38-.76-.77-1.15-1.13-1.22-1.19-2.43-2.26-3.61-3.24-.3-.24-.59-.48-.87-.71-.3-.23-.59-.46-.87-.68-1.96-1.51-3.76-2.72-5.25-3.65-.18-.11-.36-.22-.54-.32-.51-.32-.98-.6-1.4-.83-1.38-.79-3.05-.84-4.49-.2-.05.02-.1.04-.15.07-2.39,1.05-4.78,2.02-7.21,2.91-1.61.61-3.23,1.2-4.86,1.74-.93.31-1.87.62-2.8.91-.7.21-1.39.43-2.07.63-.95.29-1.9.56-2.84.82-.65.19-1.31.37-1.95.54-.87.24-1.73.46-2.59.67-.77.19-1.53.38-2.3.55-.54.13-1.08.26-1.61.38-.68.15-1.35.3-2.04.44-.19.05-.38.08-.57.12-.73.16-1.45.31-2.18.44-.8.17-1.61.32-2.39.46-.8.14-1.61.29-2.39.42-.48.08-.95.16-1.42.23-.66.12-1.33.23-1.99.32-.99.16-1.98.29-2.97.43-.71.1-1.41.19-2.12.28-.48.06-.94.11-1.39.16-.58.08-1.15.14-1.72.2-.66.08-1.29.14-1.93.21-.8.08-1.61.16-2.42.22-.62.07-1.24.12-1.86.18-4.18.33-8.32.54-12.36.66-.55,0-1.11.03-1.66.04-21.66.44-40.78-2.02-53.02-4.17-6.64,10.83-10.42,23.3-10.42,36.57,0,41.63,37.16,75.37,83,75.37s83.02-33.74,83.02-75.37v-.06c0-.42-.02-.84-.02-1.26Zm-92.04,3.19c-2.24,2.27-5.75,2.71-8.52,1.14-6.94-3.95-13.07-5.75-20.76-2.09-3.34,1.59-6.32,5.03-10.15,5.43-3.8.39-7.12-3.01-6.9-6.8.3-4.89,6.84-9.1,10.76-11.07,4.9-2.47,10.43-3.59,15.85-3.29,6.47.37,12.8,2.77,17.71,7.36,2.54,2.36,4.96,6.31,2.01,9.32Zm43.94,41.36c-21.46,7.78-34.59-4.7-35.1-25.76-.45-18.94-2.13-29.34,6.67-36.34,5.11-4.07,12.08-5.5,18.54-3.95,5.29,1.28,10.03,4.58,13.93,12.98.04.08.08.16.11.23.54,1.16,1.08,2.39,1.65,3.65,7.34,16.66,14.97,41.66-5.8,49.19Zm34.59-47.05c-1.26,3.54-3.63,5.99-6.67,6.9-.49.15-.99.25-1.5.31-3.59.43-7.35-1.29-10.33-4.72-1.19-1.36-1.12-3.45.14-4.75l3.98-4.1c.26-.27.36-.65.26-1.01-.1-.37-.39-.65-.76-.75l-5.7-1.46c-1.75-.45-2.87-2.12-2.61-3.9.74-5.07,3.52-8.8,7.43-9.97.49-.15.99-.26,1.5-.32,5.89-.7,12.04,4.51,14.32,12.11,1.21,4.03,1.19,8.17-.06,11.66Z"/>
      <path class="cls-1" d="m251.39,140.59c-1.26,3.54-3.63,5.99-6.67,6.9-.49.15-.99.25-1.5.31-3.59.43-7.35-1.29-10.33-4.72-1.19-1.36-1.12-3.45.14-4.75l3.98-4.1c.26-.27.36-.65.26-1.01-.1-.37-.39-.65-.76-.75l-5.7-1.46c-1.75-.45-2.87-2.12-2.61-3.9.74-5.07,3.52-8.8,7.43-9.97.49-.15.99-.26,1.5-.32,5.89-.7,12.04,4.51,14.32,12.11,1.21,4.03,1.19,8.17-.06,11.66Z"/>
      <path class="cls-4" d="m215.61,80.68c-4.42,1.05-8.53,1.97-12.55,2.8-.42.08-.85.13-1.27.13-1.87,0-3.61-.85-4.76-2.32-3.59-4.57-7.49-9.74-12.26-16.25-.08-.11-.19-.17-.31-.17-.79.1-1.55.21-2.31.32.42,3.46.84,6.93,1.27,10.4.36,2.91.95,3.53,3.11,4.47.65.25,1.34.52,2.03.78.93.36,1.59,1.21,1.72,2.22.2,1.52-.84,2.94-2.31,3.17-7.49,1.17-14.43,1.94-21.23,2.37-.06,0-.11,0-.17,0-1.4,0-2.63-1.12-2.79-2.55-.12-1.02.32-1.99,1.15-2.55.6-.4,1.2-.8,1.8-1.21,1.83-1.35,2.26-2.08,1.93-4.96-1.09-9.45-2.15-18.83-3.19-28.12-.48-4.31-1.5-6.68-3.03-7.04l-1.37-.34c-1.18-.29-2.02-1.26-2.15-2.49-.13-1.2.45-2.42,1.48-3.1l4.32-2.85c2.62-1.73,5.24-3.46,7.85-5.16.6-.39,1.29-.6,1.98-.6.52,0,1.02.11,1.48.33,1.15.55,1.92,1.67,2.08,3.01,1.04,9,2.1,18.04,3.19,27.1l2.28-.32c1.65-.24,3.3-1.44,4.52-3.31l2.81-4.5c.68-1.03,1.1-2.23,1.02-2.85,0,0-.17-.34-1.43-.72l-1.59-.39c-1.04-.26-1.84-1.18-1.97-2.29-.19-1.46.81-2.8,2.21-2.98,6.02-.77,11.56-1.34,16.94-1.75h.18c1.32,0,2.47,1.02,2.66,2.37.16,1.09-.38,2.15-1.33,2.62-.67.34-1.33.67-2,1.01-3.45,1.84-4.27,2.59-6.67,6.17-1.05,1.59-2.11,3.19-3.17,4.8,5.27,6.52,9.68,11.71,13.84,16.31,1.4,1.53,2.82,2.44,4.34,2.8.66.16,1.3.32,1.94.47.99.24,1.73,1.04,1.89,2.03.23,1.41-.72,2.78-2.16,3.13Z"/>
      <path class="cls-1" d="m172.86,146.28c-2.24,2.27-5.75,2.71-8.52,1.14-6.94-3.95-13.07-5.75-20.76-2.09-3.34,1.59-6.32,5.03-10.15,5.43-3.8.39-7.12-3.01-6.9-6.8.3-4.89,6.84-9.1,10.76-11.07,4.9-2.47,10.43-3.59,15.85-3.29,6.47.37,12.8,2.77,17.71,7.36,2.54,2.36,4.96,6.31,2.01,9.32Z"/>
    </g>
  </g>
</svg>